#Comment line ignore any data following # character 
#Hierarchical Translation and Rotation (.htr) file 
[Header]	
#Header keywords are followed by a single value 
FileType HTR		#Single word string
DataType HTRS		#Translation followed by rotation and scale data
FileVersion 1		#integer
NumSegments 64		#integer
NumFrames 2		#integer
DataFrameRate 30		#integer, data frame rate in this file
EulerRotationOrder ZYX
CalibrationUnits mm
RotationUnits Degrees
GlobalAxisofGravity Y
BoneLengthAxis Y
ScaleFactor 1.00
[SegmentNames&Hierarchy]
#CHILD	PARENT
Pinger_Root GLOBAL
Pelvis Pinger_Root
L_Hip Pelvis
R_Hip Pelvis
Rear_Leg01 Pelvis
Spine1 Pelvis
L_Leg01 L_Hip
L_Leg02 L_Leg01
L_Leg03 L_Leg02
L_Foot L_Leg03
L_Toe1_01 L_Foot
L_Toe2_01 L_Foot
L_Toe3_01 L_Foot
planeAlignerLeft L_Foot
L_Toe1_02 L_Toe1_01
L_Toe1_03 L_Toe1_02
L_Toe2_02 L_Toe2_01
L_Toe2_03 L_Toe2_02
L_Toe3_02 L_Toe3_01
L_Toe3_03 L_Toe3_02
planeLockWeightLeft planeAlignerLeft
R_Leg01 R_Hip
R_Leg02 R_Leg01
R_Leg03 R_Leg02
R_Foot R_Leg03
planeAlignerRight R_Foot
R_Toe1_01 R_Foot
R_Toe2_01 R_Foot
R_Toe3_01 R_Foot
planeLockWeightRight planeAlignerRight
R_Toe1_02 R_Toe1_01
R_Toe1_03 R_Toe1_02
R_Toe2_02 R_Toe2_01
R_Toe2_03 R_Toe2_02
R_Toe3_02 R_Toe3_01
R_Toe3_03 R_Toe3_02
Rear_Leg02 Rear_Leg01
Rear_Leg03 Rear_Leg02
Rear_Leg04 Rear_Leg03
Rear_Foot Rear_Leg04
planeAlignerCenter Rear_Foot
Rear_Toe1_01 Rear_Foot
Rear_Toe2_01 Rear_Foot
Rear_Toe3_01 Rear_Foot
planeLockWeightCenter planeAlignerCenter
Rear_Toe1_02 Rear_Toe1_01
Rear_Toe1_03 Rear_Toe1_02
Rear_Toe2_02 Rear_Toe2_01
Rear_Toe2_03 Rear_Toe2_02
Rear_Toe3_02 Rear_Toe3_01
Rear_Toe3_03 Rear_Toe3_02
Back_Bone Spine1
Head Spine1
Motor_Bone Back_Bone
Ping_Mechanism Back_Bone
BN_LookIK Head
bottomMouth Head
L_Mouth01 Head
L_mouthFront Head
mouthGun Head
R_Mouth01 Head
R_mouthFront Head
TopMouth Head
weapon_bone Head
[BasePosition]
#SegmentName Tx, Ty, Tz, Rx, Ry, Rz, BoneLength
Pinger_Root 0.000000 0.000000 0.000000 -90.000000 0.000000 0.000000 10.000000 
Pelvis 0.000000 0.000000 0.000000 0.000000 0.000000 0.000000 10.000000 
L_Hip 0.000000 0.000000 0.000000 0.000000 0.000000 0.000000 10.000000 
R_Hip 0.000000 0.000000 0.000000 0.000000 0.000000 0.000000 10.000000 
Rear_Leg01 0.000000 0.000000 0.000000 0.000000 0.000000 0.000000 10.000000 
Spine1 0.000000 0.000000 0.000000 0.000000 0.000000 0.000000 10.000000 
L_Leg01 0.000000 0.000000 0.000000 0.000000 0.000000 0.000000 10.000000 
L_Leg02 0.000000 0.000000 0.000000 0.000000 0.000000 0.000000 10.000000 
L_Leg03 0.000000 0.000000 0.000000 0.000000 0.000000 0.000000 10.000000 
L_Foot 0.000000 0.000000 0.000000 0.000000 0.000000 0.000000 10.000000 
L_Toe1_01 0.000000 0.000000 0.000000 0.000000 0.000000 0.000000 10.000000 
L_Toe2_01 0.000000 0.000000 0.000000 0.000000 0.000000 0.000000 10.000000 
L_Toe3_01 0.000000 0.000000 0.000000 0.000000 0.000000 0.000000 10.000000 
planeAlignerLeft 0.000000 0.000000 0.000000 0.000000 0.000000 0.000000 10.000000 
L_Toe1_02 0.000000 0.000000 0.000000 0.000000 0.000000 0.000000 10.000000 
L_Toe1_03 0.000000 0.000000 0.000000 0.000000 0.000000 0.000000 10.000000 
L_Toe2_02 0.000000 0.000000 0.000000 0.000000 0.000000 0.000000 10.000000 
L_Toe2_03 0.000000 0.000000 0.000000 0.000000 0.000000 0.000000 10.000000 
L_Toe3_02 0.000000 0.000000 0.000000 0.000000 0.000000 0.000000 10.000000 
L_Toe3_03 0.000000 0.000000 0.000000 0.000000 0.000000 0.000000 10.000000 
planeLockWeightLeft 0.000000 0.000000 0.000000 0.000000 0.000000 0.000000 10.000000 
R_Leg01 0.000000 0.000000 0.000000 0.000000 0.000000 0.000000 10.000000 
R_Leg02 0.000000 0.000000 0.000000 0.000000 0.000000 0.000000 10.000000 
R_Leg03 0.000000 0.000000 0.000000 0.000000 0.000000 0.000000 10.000000 
R_Foot 0.000000 0.000000 0.000000 0.000000 0.000000 0.000000 10.000000 
planeAlignerRight 0.000000 0.000000 0.000000 0.000000 0.000000 0.000000 10.000000 
R_Toe1_01 0.000000 0.000000 0.000000 0.000000 0.000000 0.000000 10.000000 
R_Toe2_01 0.000000 0.000000 0.000000 0.000000 0.000000 0.000000 10.000000 
R_Toe3_01 0.000000 0.000000 0.000000 0.000000 0.000000 0.000000 10.000000 
planeLockWeightRight 0.000000 0.000000 0.000000 0.000000 0.000000 0.000000 10.000000 
R_Toe1_02 0.000000 0.000000 0.000000 0.000000 0.000000 0.000000 10.000000 
R_Toe1_03 0.000000 0.000000 0.000000 0.000000 0.000000 0.000000 10.000000 
R_Toe2_02 0.000000 0.000000 0.000000 0.000000 0.000000 0.000000 10.000000 
R_Toe2_03 0.000000 0.000000 0.000000 0.000000 0.000000 0.000000 10.000000 
R_Toe3_02 0.000000 0.000000 0.000000 0.000000 0.000000 0.000000 10.000000 
R_Toe3_03 0.000000 0.000000 0.000000 0.000000 0.000000 0.000000 10.000000 
Rear_Leg02 0.000000 0.000000 0.000000 0.000000 0.000000 0.000000 10.000000 
Rear_Leg03 0.000000 0.000000 0.000000 0.000000 0.000000 0.000000 10.000000 
Rear_Leg04 0.000000 0.000000 0.000000 0.000000 0.000000 0.000000 10.000000 
Rear_Foot 0.000000 0.000000 0.000000 0.000000 0.000000 0.000000 10.000000 
planeAlignerCenter 0.000000 0.000000 0.000000 0.000000 0.000000 0.000000 10.000000 
Rear_Toe1_01 0.000000 0.000000 0.000000 0.000000 0.000000 0.000000 10.000000 
Rear_Toe2_01 0.000000 0.000000 0.000000 0.000000 0.000000 0.000000 10.000000 
Rear_Toe3_01 0.000000 0.000000 0.000000 0.000000 0.000000 0.000000 10.000000 
planeLockWeightCenter 0.000000 0.000000 0.000000 0.000000 0.000000 0.000000 10.000000 
Rear_Toe1_02 0.000000 0.000000 0.000000 0.000000 0.000000 0.000000 10.000000 
Rear_Toe1_03 0.000000 0.000000 0.000000 0.000000 0.000000 0.000000 10.000000 
Rear_Toe2_02 0.000000 0.000000 0.000000 0.000000 0.000000 0.000000 10.000000 
Rear_Toe2_03 0.000000 0.000000 0.000000 0.000000 0.000000 0.000000 10.000000 
Rear_Toe3_02 0.000000 0.000000 0.000000 0.000000 0.000000 0.000000 10.000000 
Rear_Toe3_03 0.000000 0.000000 0.000000 0.000000 0.000000 0.000000 10.000000 
Back_Bone 0.000000 0.000000 0.000000 0.000000 0.000000 0.000000 10.000000 
Head 0.000000 0.000000 0.000000 0.000000 0.000000 0.000000 10.000000 
Motor_Bone 0.000000 0.000000 0.000000 0.000000 0.000000 0.000000 10.000000 
Ping_Mechanism 0.000000 0.000000 0.000000 0.000000 0.000000 0.000000 10.000000 
BN_LookIK 0.000000 0.000000 0.000000 0.000000 0.000000 0.000000 10.000000 
bottomMouth 0.000000 0.000000 0.000000 0.000000 0.000000 0.000000 10.000000 
L_Mouth01 0.000000 0.000000 0.000000 0.000000 0.000000 0.000000 10.000000 
L_mouthFront 0.000000 0.000000 0.000000 0.000000 0.000000 0.000000 10.000000 
mouthGun 0.000000 0.000000 0.000000 0.000000 0.000000 0.000000 10.000000 
R_Mouth01 0.000000 0.000000 0.000000 0.000000 0.000000 0.000000 10.000000 
R_mouthFront 0.000000 0.000000 0.000000 0.000000 0.000000 0.000000 10.000000 
TopMouth 0.000000 0.000000 0.000000 0.000000 0.000000 0.000000 10.000000 
weapon_bone 0.000000 0.000000 0.000000 0.000000 0.000000 0.000000 10.000000 
#Beginning of Data. Separated by tabs
#Fr	Tx	Ty	Tz	Rx	Ry	Rz	SF
[Pinger_Root]
31 0.000000 0.000000 0.000000 -0.000075 -0.000000 -0.000020 0.000000
32 0.000000 0.000000 0.000000 -0.000075 -0.000000 -0.000020 0.000000
[Pelvis]
31 55.885548 877.736816 4377.880371 -111.715576 -84.243706 104.004005 4465.353516
32 56.384472 883.174377 4417.219727 -106.496384 -84.890633 98.825470 4504.998047
[L_Hip]
31 5.766392 125.831482 872.656799 160.158691 -45.484905 122.312202 881.701050
32 5.766392 125.831482 872.656799 160.158691 -45.484905 122.312202 881.701050
[R_Hip]
31 5.765438 125.836372 -872.654907 43.294140 54.541603 129.443008 881.699829
32 5.765438 125.836372 -872.654907 40.846966 52.327099 127.728600 881.699829
[Rear_Leg01]
31 -192.298416 -925.602966 -0.001907 169.290359 2.080034 -155.024689 945.367432
32 -192.298416 -925.602966 -0.001907 169.543228 2.259468 -156.809158 945.367432
[Spine1]
31 290.604584 5.007505 0.000477 7.658498 0.565766 15.317049 290.647736
32 290.604584 5.007505 0.000477 7.502947 0.054917 16.181822 290.647736
[L_Leg01]
31 761.932007 -0.002384 -0.069261 21.144974 -17.129772 -1.357210 761.932068
32 761.932007 -0.002384 -0.069261 21.588371 -16.757988 -4.833160 761.932068
[L_Leg02]
31 1441.140503 -0.000954 -0.000715 3.120603 -0.234782 -135.176666 1441.140503
32 1441.140503 -0.000954 -0.000715 2.775585 -0.218597 -131.830017 1441.140503
[L_Leg03]
31 1686.963989 -0.000715 -0.000954 -0.027431 0.010389 117.792717 1686.963989
32 1686.963989 -0.000715 -0.000954 -0.027449 0.010340 117.590454 1686.963989
[L_Foot]
31 3041.570068 -30.715107 11.297464 1.986641 12.789916 56.312706 3041.746094
32 3041.570068 -30.715107 11.297464 2.157280 12.960540 55.811726 3041.746094
[L_Toe1_01]
31 -188.216690 -224.732346 -21.137953 93.736824 -6.933707 -172.075409 293.899567
32 -188.216690 -224.732346 -21.137953 93.730614 -6.911170 -172.039261 293.899567
[L_Toe2_01]
31 200.746536 -219.926590 148.838394 -89.985588 -26.442312 -52.671753 332.896027
32 200.746536 -219.926590 148.838394 -89.998383 -26.398775 -52.673698 332.896027
[L_Toe3_01]
31 188.832520 -219.859131 -191.078659 -99.729149 13.707385 -67.539589 347.140900
32 188.832520 -219.859131 -191.078659 -99.788055 13.839008 -67.673027 347.140900
[planeAlignerLeft]
31 0.812531 -811.448792 -0.314951 0.000000 -90.000000 -90.001900 811.449280
32 0.812531 -811.448792 -0.314951 0.000000 -90.000000 -90.001900 811.449280
[L_Toe1_02]
31 413.761139 0.000477 0.000000 0.001384 -26.012932 0.001384 413.761139
32 413.761139 0.000477 0.000000 0.001384 -26.012932 0.001384 413.761139
[L_Toe1_03]
31 464.317322 0.000358 -0.000089 0.003766 53.680363 0.003766 464.317322
32 464.317322 0.000358 -0.000089 0.003734 53.359097 0.003734 464.317322
[L_Toe2_02]
31 342.235809 -0.000477 0.000238 0.001188 -72.220497 0.001188 342.235809
32 342.235809 -0.000477 0.000238 0.001188 -72.402016 0.001188 342.235809
[L_Toe2_03]
31 420.210846 -0.000715 0.000000 0.027380 85.086533 0.027380 420.210846
32 420.210846 -0.000715 0.000000 0.029090 85.375511 0.029090 420.210846
[L_Toe3_02]
31 329.270111 0.000954 0.000000 0.001178 -80.534828 0.001178 329.270111
32 329.270111 0.000954 0.000000 0.001178 -80.527031 0.001178 329.270111
[L_Toe3_03]
31 439.137451 -0.001907 0.000954 -179.995956 78.644890 -179.992432 439.137451
32 439.137451 -0.001907 0.000954 -179.995956 78.639267 -179.992432 439.137451
[planeLockWeightLeft]
31 -0.000954 0.000238 -0.000305 -0.011826 -0.004376 0.005620 0.001029
32 -0.000954 0.000238 -0.000305 -0.011826 -0.004376 0.005620 0.001029
[R_Leg01]
31 761.455627 -0.001907 -0.000358 116.028793 -7.120380 42.460693 761.455688
32 761.455627 -0.001907 -0.000358 117.985580 -6.121656 40.205025 761.455688
[R_Leg02]
31 1441.140625 0.000000 -0.000238 -1.062177 -0.065003 -102.025223 1441.140625
32 1441.140625 0.000000 -0.000238 -1.095220 -0.096050 -105.613068 1441.140625
[R_Leg03]
31 1686.963989 0.000954 0.001431 0.069840 -0.040050 129.654465 1686.963989
32 1686.963989 0.000954 0.001431 0.071891 -0.039343 130.202423 1686.963989
[R_Foot]
31 3041.560059 -30.531288 -11.204481 -1.790999 -24.663866 47.411125 3041.734131
32 3041.560059 -30.531288 -11.204481 -1.307496 -24.685530 49.295502 3041.734131
[planeAlignerRight]
31 -0.635147 -812.270569 -0.364304 0.000000 -89.960434 -90.005180 812.270874
32 -0.635147 -812.270569 -0.364304 0.000000 -89.960434 -90.005180 812.270874
[R_Toe1_01]
31 -188.383347 -224.864899 21.052242 77.242126 -3.428512 -174.998840 294.101532
32 -188.383347 -224.864899 21.052242 77.098091 -2.476287 -174.351761 294.101532
[R_Toe2_01]
31 200.637817 -220.002121 -148.787384 -86.890457 32.495800 -50.434074 332.857574
32 200.637817 -220.002121 -148.787384 -88.747528 32.705486 -53.794159 332.857574
[R_Toe3_01]
31 188.606735 -220.092957 191.126343 -71.626915 -14.957182 -69.910027 347.192566
32 188.606735 -220.092957 191.126343 -72.107170 -12.763359 -71.204796 347.192566
[planeLockWeightRight]
31 -0.000477 0.000000 0.000000 -0.011823 -0.004379 -0.000027 0.000477
32 -0.000477 0.000000 0.000000 -0.011823 -0.004379 -0.000027 0.000477
[R_Toe1_02]
31 413.762085 0.000477 -0.000119 0.001387 -25.527348 0.001387 413.762085
32 413.762085 0.000477 -0.000119 0.001389 -25.270128 0.001389 413.762085
[R_Toe1_03]
31 464.317810 0.000000 0.001088 0.004869 62.103306 0.004869 464.317810
32 464.317810 0.000000 0.001088 0.005421 64.994728 0.005421 464.317810
[R_Toe2_02]
31 342.234741 -0.000954 0.000238 -0.002340 -76.388260 -0.002340 342.234741
32 342.234741 -0.000954 0.000238 -0.002345 -74.195824 -0.002345 342.234741
[R_Toe2_03]
31 420.210846 0.000715 -0.000268 -179.989990 82.009430 -179.993500 420.210846
32 420.210846 0.000715 -0.000268 -179.883591 89.424950 -179.887085 420.210846
[R_Toe3_02]
31 329.270355 -0.000477 -0.000954 0.001178 -79.621323 0.001178 329.270355
32 329.270355 -0.000477 -0.000954 0.001180 -78.301338 0.001180 329.270355
[R_Toe3_03]
31 439.137939 0.000238 0.001431 -179.993698 81.826080 -179.990189 439.137939
32 439.137939 0.000238 0.001431 -179.984009 86.287117 -179.980515 439.137939
[Rear_Leg02]
31 1162.777710 -0.029802 0.005960 0.921782 -3.104808 -120.217461 1162.777710
32 1162.777710 -0.029802 0.005960 0.822236 -3.053386 -120.981667 1162.777710
[Rear_Leg03]
31 607.192505 -0.013351 -0.073195 0.010584 -0.004915 66.173645 607.192505
32 607.192505 -0.013351 -0.073195 0.010612 -0.004852 65.496254 607.192505
[Rear_Leg04]
31 995.874512 -0.020504 -0.011921 -0.043561 -0.018022 62.112274 995.874573
32 995.874512 -0.020504 -0.011921 -0.043315 -0.018595 60.596741 995.874573
[Rear_Foot]
31 3096.176270 -0.067472 -0.041425 -139.545990 85.729927 50.586731 3096.176270
32 3096.176270 -0.067472 -0.041425 -140.264771 85.779327 50.601505 3096.176270
[planeAlignerCenter]
31 0.350077 0.966311 -838.790894 0.000009 0.000003 -179.999985 838.791565
32 0.350077 0.966311 -838.790894 0.000009 0.000003 -179.999985 838.791565
[Rear_Toe1_01]
31 0.653352 83.966492 -371.173737 0.288091 41.914127 90.413170 380.553192
32 0.653352 83.966492 -371.173737 0.288091 41.914127 90.413170 380.553192
[Rear_Toe2_01]
31 178.200760 -294.826019 -362.060547 -7.196267 34.406261 -66.271294 499.765686
32 178.200760 -294.826019 -362.060547 -7.196267 34.406261 -66.271294 499.765686
[Rear_Toe3_01]
31 -153.359680 -308.780914 -362.060852 3.289418 33.518005 -112.540970 499.952881
32 -153.359680 -308.780914 -362.060852 3.289418 33.518005 -112.540970 499.952881
[planeLockWeightCenter]
31 -0.000062 0.000238 0.000000 -0.011814 -0.004373 -0.000015 0.000246
32 -0.000062 0.000238 0.000000 -0.011814 -0.004373 -0.000015 0.000246
[Rear_Toe1_02]
31 379.707825 0.194073 0.000477 -0.000242 -31.678999 0.006934 379.707855
32 379.707825 0.194073 0.000477 -0.000242 -31.678677 0.006934 379.707855
[Rear_Toe1_03]
31 500.129700 0.165701 0.000119 -0.000103 51.904896 0.007295 500.129761
32 500.129700 0.165701 0.000119 -0.000103 51.904541 0.007295 500.129761
[Rear_Toe2_02]
31 340.494507 0.000238 -0.000954 0.001192 -69.854523 0.001192 340.494507
32 340.494507 0.000238 -0.000954 0.001192 -69.854523 0.001192 340.494507
[Rear_Toe2_03]
31 433.103577 0.000000 0.000238 0.006696 69.810326 0.006696 433.103546
32 433.103577 0.000000 0.000238 0.006696 69.810341 0.006696 433.103546
[Rear_Toe3_02]
31 340.494141 -0.000358 -0.000477 0.008288 -67.274704 -0.009460 340.494171
32 340.494141 -0.000358 -0.000477 0.008288 -67.274704 -0.009460 340.494171
[Rear_Toe3_03]
31 433.103577 0.001431 -0.000238 -0.000972 65.958984 -0.004547 433.103546
32 433.103577 0.001431 -0.000238 -0.000972 65.958961 -0.004547 433.103546
[Back_Bone]
31 1312.175781 -701.934692 0.000954 -0.672090 4.219861 -87.912094 1488.125488
32 1312.175781 -701.934692 0.000954 -0.073250 3.093480 -87.140526 1488.125488
[Head]
31 1406.159424 809.709290 0.001431 -0.665591 1.122658 13.688595 1622.625488
32 1406.159424 809.709290 0.001431 -0.554982 0.716340 11.074336 1622.625488
[Motor_Bone]
31 1158.364380 -417.834747 0.000477 -0.095355 4.746033 -102.786385 1231.419434
32 1158.364380 -417.834747 0.000477 -0.098302 2.091533 -99.401489 1231.419434
[Ping_Mechanism]
31 1242.400757 -442.232666 -4.787016 0.000103 -0.000053 82.120995 1318.769165
32 1239.501221 -442.051697 -2.865405 0.000103 -0.000053 82.120995 1315.971680
[BN_LookIK]
31 193.241119 1380.371704 -0.002861 0.000000 89.965736 -31.038179 1393.832153
32 193.241119 1380.371704 -0.002861 0.000000 89.965736 -31.038179 1393.832153
[bottomMouth]
31 -435.092926 615.759399 -0.000954 -0.000022 0.000016 73.527184 753.966492
32 -435.092926 615.759399 -0.000954 -0.000022 0.000016 73.527184 753.966492
[L_Mouth01]
31 554.440979 7.658243 838.222046 150.204178 23.759130 109.605339 1005.027161
32 554.440979 7.658243 838.222046 150.204178 23.759130 109.605339 1005.027161
[L_mouthFront]
31 551.629089 934.514771 339.150421 0.000081 2.804060 79.119301 1136.941284
32 551.629089 934.514771 339.150421 0.000081 2.804060 79.119301 1136.941284
[mouthGun]
31 55.332661 1627.420898 0.000000 0.000023 0.000009 -11.038128 1628.361328
32 55.332661 1627.420898 0.000000 0.000023 0.000009 -11.038128 1628.361328
[R_Mouth01]
31 554.442383 7.659197 -838.223938 29.795891 -23.759109 109.605331 1005.029541
32 554.442383 7.659197 -838.223938 29.795891 -23.759109 109.605331 1005.029541
[R_mouthFront]
31 551.629089 934.514282 -339.151367 0.000029 -2.803930 79.119133 1136.941162
32 551.629089 934.514282 -339.151367 0.000029 -2.803930 79.119133 1136.941162
[TopMouth]
31 461.269867 -56.106091 -0.008583 -0.000059 -0.000268 92.025169 464.669525
32 461.269867 -56.106091 -0.008583 -0.000059 -0.000268 92.025169 464.669525
[weapon_bone]
31 -987.239868 1448.372803 0.001431 0.000000 89.965736 -31.038221 1752.833740
32 -987.239868 1448.372803 0.001431 0.000000 89.965736 -31.038221 1752.833740
